<svg width="62" height="62" viewBox="0 0 62 62" fill="none" xmlns="http://www.w3.org/2000/svg">
<path d="M30.835 61.67C47.4686 61.67 60.9529 48.0252 60.9529 31.1936C60.9529 14.3619 47.4686 0.717102 30.835 0.717102C14.2013 0.717102 0.717041 14.3619 0.717041 31.1936C0.717041 48.0252 14.2013 61.67 30.835 61.67Z" fill="white"/>
<path d="M31.1621 0C31.5979 13.7287 32.0338 19.8303 36.8279 24.8423C41.84 29.6365 48.1595 30.0723 61.6702 30.5081C61.4523 13.7287 47.9416 0.217915 31.1621 0Z" fill="#3A4C5A"/>
<path d="M61.6702 31.1619C47.9416 31.5977 41.84 32.0335 36.8279 36.8277C32.0338 41.8397 31.5979 48.1592 31.1621 61.67C47.9416 61.4521 61.4523 47.9413 61.6702 31.1619Z" fill="#3A4C5A"/>
<path d="M30.5081 61.67C30.0723 47.9413 29.6365 41.8397 24.8423 36.8277C19.8303 32.0335 13.7287 31.5977 0 31.1619C0.217915 47.9413 13.7287 61.4521 30.5081 61.67Z" fill="#3A4C5A"/>
<path d="M0 30.5081C13.7287 30.0723 19.8303 29.6365 24.8423 24.8423C29.8544 19.8303 30.0723 13.7287 30.5081 0C13.7287 0.217915 0.217915 13.7287 0 30.5081Z" fill="#3A4C5A"/>
</svg>
