<svg width="62" height="62" viewBox="0 0 62 62" fill="none" xmlns="http://www.w3.org/2000/svg">
<path d="M30.9176 61.6709C47.9929 61.6709 61.8352 47.8654 61.8352 30.8354C61.8352 13.8055 47.9929 0 30.9176 0C13.8423 0 0 13.8055 0 30.8354C0 47.8654 13.8423 61.6709 30.9176 61.6709Z" fill="#3A4C5A"/>
<path d="M30.9176 14.9188C36.1165 14.9188 36.7304 14.9372 38.7805 15.029C40.6772 15.1147 41.7084 15.4331 42.3958 15.6963C43.3043 16.0514 43.9549 16.4676 44.6362 17.1472C45.3176 17.8267 45.7411 18.4756 46.091 19.3816C46.3549 20.0673 46.6741 21.0957 46.76 22.9874C46.8521 25.032 46.8705 25.6503 46.8705 30.8294C46.8705 36.0145 46.8521 36.6267 46.76 38.6714C46.6741 40.563 46.3549 41.5915 46.091 42.2771C45.735 43.1831 45.3176 43.832 44.6362 44.5116C43.9549 45.1911 43.3043 45.6135 42.3958 45.9624C41.7084 46.2257 40.6772 46.544 38.7805 46.6297C36.7304 46.7215 36.1104 46.7399 30.9176 46.7399C25.7186 46.7399 25.1048 46.7215 23.0547 46.6297C21.158 46.544 20.1268 46.2257 19.4393 45.9624C18.5309 45.6074 17.8802 45.1911 17.1989 44.5116C16.5176 43.832 16.0941 43.1831 15.7442 42.2771C15.4802 41.5915 15.1611 40.563 15.0751 38.6714C14.9831 36.6267 14.9646 36.0084 14.9646 30.8294C14.9646 25.6442 14.9831 25.032 15.0751 22.9874C15.1611 21.0957 15.4802 20.0673 15.7442 19.3816C16.1002 18.4756 16.5176 17.8267 17.1989 17.1472C17.8802 16.4676 18.5309 16.0452 19.4393 15.6963C20.1268 15.4331 21.158 15.1147 23.0547 15.029C25.1048 14.9372 25.7186 14.9188 30.9176 14.9188ZM30.9176 11.4172C25.6327 11.4172 24.9698 11.4417 22.8889 11.5335C20.8143 11.6253 19.4025 11.9559 18.1626 12.4334C16.8797 12.9293 15.7994 13.5904 14.713 14.674C13.6327 15.7514 12.9636 16.835 12.4664 18.1144C11.9877 19.351 11.6562 20.759 11.5641 22.8282C11.4721 24.8973 11.4475 25.5585 11.4475 30.8355C11.4475 36.1063 11.4721 36.7675 11.5641 38.8428C11.6562 40.9119 11.9877 42.32 12.4664 43.5566C12.9636 44.836 13.6265 45.9135 14.713 46.997C15.7933 48.0744 16.8797 48.7417 18.1626 49.2376C19.4025 49.7151 20.8143 50.0457 22.8889 50.1375C24.9636 50.2293 25.6265 50.2538 30.9176 50.2538C36.2025 50.2538 36.8654 50.2293 38.9462 50.1375C41.0209 50.0457 42.4327 49.7151 43.6726 49.2376C44.9554 48.7417 46.0357 48.0806 47.1222 46.997C48.2025 45.9196 48.8715 44.836 49.3687 43.5566C49.8475 42.32 50.1789 40.9119 50.271 38.8428C50.3631 36.7736 50.3876 36.1125 50.3876 30.8355C50.3876 25.5585 50.3631 24.9035 50.271 22.8282C50.1789 20.759 49.8475 19.351 49.3687 18.1144C48.8715 16.835 48.2086 15.7575 47.1222 14.674C46.0419 13.5965 44.9554 12.9293 43.6726 12.4334C42.4327 11.9559 41.0209 11.6253 38.9462 11.5335C36.8654 11.4417 36.2025 11.4172 30.9176 11.4172Z" fill="white"/>
<path d="M30.9172 20.8632C25.399 20.8632 20.9182 25.3259 20.9182 30.8355C20.9182 36.3451 25.3929 40.8079 30.9172 40.8079C36.4353 40.8079 40.91 36.3451 40.91 30.8355C40.91 25.3259 36.4353 20.8632 30.9172 20.8632ZM30.9172 37.3063C27.3325 37.3063 24.4292 34.4107 24.4292 30.8355C24.4292 27.2604 27.3325 24.3648 30.9172 24.3648C34.5018 24.3648 37.4052 27.2604 37.4052 30.8355C37.4052 34.4107 34.5018 37.3063 30.9172 37.3063Z" fill="white"/>
<path d="M41.3093 22.8038C42.6009 22.8038 43.6479 21.7595 43.6479 20.4714C43.6479 19.1832 42.6009 18.139 41.3093 18.139C40.0177 18.139 38.9707 19.1832 38.9707 20.4714C38.9707 21.7595 40.0177 22.8038 41.3093 22.8038Z" fill="white"/>
</svg>
