<svg width="62" height="62" viewBox="0 0 62 62" fill="none" xmlns="http://www.w3.org/2000/svg">
<path d="M30.9176 61.6709C47.9929 61.6709 61.8352 47.8654 61.8352 30.8354C61.8352 13.8055 47.9929 0 30.9176 0C13.8423 0 0 13.8055 0 30.8354C0 47.8654 13.8423 61.6709 30.9176 61.6709Z" fill="#3A4C5A"/>
<path d="M45.9684 18.3103C45.8518 17.9675 45.7106 17.8695 45.4897 17.7899C45.0047 17.6063 44.1945 17.8818 44.1945 17.8818C44.1945 17.8818 15.3025 28.2398 13.6514 29.3846C13.2954 29.6295 13.1787 29.7764 13.1174 29.9417C12.8289 30.7559 13.7189 31.1171 13.7189 31.1171L21.1644 33.5352C21.1644 33.5352 21.4406 33.578 21.5388 33.5107C23.2329 32.4455 38.5843 22.7731 39.4682 22.4486C39.6094 22.4058 39.7137 22.4547 39.683 22.5527C39.327 23.7954 25.9951 35.6105 25.9951 35.6105C25.9951 35.6105 25.946 35.6717 25.9091 35.7451L25.8907 35.7329L25.1971 43.0974C25.1971 43.0974 24.9086 45.3563 27.1675 43.0974C28.7634 41.5057 30.3102 40.1712 31.0836 39.5223C33.6432 41.2853 36.3991 43.2382 37.5899 44.2544C38.1853 44.7686 38.6887 44.8482 39.0999 44.836C40.2293 44.7931 40.5424 43.5565 40.5424 43.5565C40.5424 43.5565 45.8088 22.4241 45.9807 19.5897C45.9991 19.3143 46.0237 19.1367 46.0237 18.947C46.0359 18.696 46.0114 18.4327 45.9684 18.3103Z" fill="white"/>
</svg>
