<svg width="62" height="62" viewBox="0 0 62 62" fill="none" xmlns="http://www.w3.org/2000/svg">
<path d="M30.835 61.67C47.8647 61.67 61.67 47.8647 61.67 30.835C61.67 13.8053 47.8647 0 30.835 0C13.8053 0 0 13.8053 0 30.835C0 47.8647 13.8053 61.67 30.835 61.67Z" fill="#3A4C5A"/>
<path d="M44.1604 24.1769V17.8436H14.4788V24.1769H24.5941V40.4322C24.5941 43.3877 26.3756 45.921 28.9421 47.0368C29.5762 47.3083 30.2405 47.4892 30.9652 47.5797C32.0824 47.7606 33.411 47.821 34.8302 47.821C38.0308 47.821 40.386 47.1273 40.386 47.1273V41.0655C40.386 41.0655 39.0574 41.4877 37.0646 41.4877C35.0717 41.4877 33.5922 40.2211 33.5922 38.8639V24.1769H44.1604Z" fill="white"/>
</svg>
