<svg width="62" height="62" viewBox="0 0 62 62" fill="none" xmlns="http://www.w3.org/2000/svg">
<path d="M30.9176 61.6709C47.9929 61.6709 61.8352 47.8654 61.8352 30.8354C61.8352 13.8055 47.9929 0 30.9176 0C13.8423 0 0 13.8055 0 30.8354C0 47.8654 13.8423 61.6709 30.9176 61.6709Z" fill="#3A4C5A"/>
<path d="M41.4699 32.5318C49.3923 27.0365 50.2389 19.0688 50.2389 19.0688C50.2389 19.0688 45.2744 19.0688 43.2467 19.0688C41.2087 27.3224 35.4184 29.2759 33.6417 29.6888V19H26.7227C26.7227 19 26.7227 31.7059 26.7227 37.3971C16.5741 34.7924 17.0549 19 17.0549 19H10C10 48.3824 33.6469 45.7353 33.6469 45.7353V36.55C35.4707 36.6559 41.6163 37.6618 44.4905 46C46.5181 46 52 46 52 46C52 46 50.3121 37.8894 41.4699 32.5318Z" fill="white"/>
</svg>
