<svg width="62" height="62" viewBox="0 0 62 62" fill="none" xmlns="http://www.w3.org/2000/svg">
<path d="M30.9176 61.6709C47.9929 61.6709 61.8352 47.8654 61.8352 30.8354C61.8352 13.8055 47.9929 0 30.9176 0C13.8423 0 0 13.8055 0 30.8354C0 47.8654 13.8423 61.6709 30.9176 61.6709Z" fill="#3A4C5A"/>
<path d="M50.664 20.9366C50.1913 19.1674 48.7918 17.7716 47.0179 17.3002C43.8016 16.4432 30.9115 16.4432 30.9115 16.4432C30.9115 16.4432 18.0215 16.4432 14.8052 17.3002C13.0313 17.7716 11.6318 19.1674 11.1591 20.9366C10.2998 24.1444 10.2998 30.8294 10.2998 30.8294C10.2998 30.8294 10.2998 37.5205 11.1591 40.7222C11.6318 42.4914 13.0313 43.881 14.8052 44.3585C18.0215 45.2156 30.9115 45.2156 30.9115 45.2156C30.9115 45.2156 43.8016 45.2156 47.0179 44.3585C48.7918 43.8871 50.1913 42.4914 50.664 40.7222C51.5233 37.5144 51.5233 30.8294 51.5233 30.8294C51.5233 30.8294 51.5233 24.1444 50.664 20.9366ZM26.7929 37.0001V24.6647L37.5039 30.8294L26.7929 37.0001Z" fill="white"/>
</svg>
