<svg width="163" height="163" viewBox="0 0 163 163" fill="none" xmlns="http://www.w3.org/2000/svg">
<mask id="mask0_29_741" style="mask-type:alpha" maskUnits="userSpaceOnUse" x="0" y="0" width="163" height="163">
<circle cx="81.5" cy="81.5" r="81.5" fill="#C4C4C4"/>
</mask>
<g mask="url(#mask0_29_741)">
<path d="M163 0H0V163H163V0Z" fill="url(#paint0_radial_29_741)"/>
<path d="M163 148.941C154.836 144.346 137.923 135.628 115.865 128.541L115.351 128.376L115.251 128.908C114.796 131.322 113.197 137.544 108.204 143.173C101.912 150.265 92.633 153.861 80.6245 153.861C66.1471 153.861 52.1075 143.433 48.6644 130.122L48.5371 129.63L48.0532 129.787C22.7149 138.092 5.20836 148.279 0.202158 151.253L0 151.372V163.026H163V148.941Z" fill="#8CC63F"/>
<path d="M56.1886 127.804C56.1886 127.804 50.8848 147.185 80.7326 148.844C100.867 148.844 112.712 136.988 108.228 128.75C99.7004 129.139 94.6815 137.164 83.0789 137.22C71.4763 137.276 63.366 125.925 56.1886 127.804Z" fill="#E3C8A5"/>
<g style="mix-blend-mode:multiply">
<path d="M60.9753 125.512C60.9753 125.512 47.281 139.272 80.809 144.862C110.859 146.823 108.791 124.794 100.929 125.168C93.0675 125.543 92.808 132.636 82.1111 132.647C71.4159 132.658 67.586 123.567 60.9753 125.512Z" fill="#DCC8B9"/>
</g>
<path d="M42.805 71.6018C42.805 71.6018 38.3909 68.1634 36.616 71.0139C34.8412 73.8644 32.2482 89.2034 38.9369 94.6335C42.3497 95.3123 43.8062 94.8151 43.8062 94.8151C43.8062 94.8151 43.1742 102.602 41.8037 115.54C40.3472 129.295 67.6051 142.011 79.4831 142.826C91.3595 143.64 111.155 134.953 117.435 125.315C123.714 115.677 122.395 111.83 118.573 93.1883C117.207 87.4874 122.597 98.0146 126.446 87.7136C130.723 76.2655 127.067 61.7614 118.891 70.0212C119.846 66.492 121.32 54.9053 120.62 49.7492C119.8 43.7089 114.84 33.8222 99.5509 32.6002C89.6531 31.8099 47.7204 26.6044 41.0301 53.7549C41.6445 61.0125 42.6681 64.2024 42.805 71.6018Z" fill="#EFCB9C"/>
<g style="mix-blend-mode:multiply">
<path d="M48.6358 64.1801C48.6358 64.1801 56.321 41.3746 63.1927 39.5646C65.6346 40.0171 87.6045 51.6915 103.787 39.5646C100.261 38.9305 88.5978 41.3746 80.0085 38.9305C71.4192 36.4863 61.6551 33.5912 61.6551 33.5912C61.6551 33.5912 53.9699 37.1204 50.9869 47.7097C48.0038 58.2991 47.3703 65.7192 48.6358 64.1801Z" fill="#DCC8B9"/>
</g>
<path d="M118.704 26.6171C114.5 25.9973 110.479 25.2309 106.413 24.2717C106.049 24.1857 105.973 23.8543 106.009 23.6487L106.027 23.5468C106.388 21.3942 106.994 17.7932 103.862 16.8579C102.808 16.5441 100.549 17.0523 98.5547 17.5017C97.641 17.7072 96.7767 17.9016 96.2498 17.9589C92.6523 18.3334 88.9005 18.4911 84.7777 18.4433C82.6797 18.4178 80.5101 18.3286 78.4121 18.2441C71.2968 17.9526 63.9395 17.653 57.3352 19.6654C50.3472 21.8021 45.653 26.657 43.3831 34.0978C41.6942 39.6283 41.2787 46.4637 42.0746 55.6095L42.1367 56.3217L51.2147 41.7682C52.0313 40.4584 53.1583 39.3415 54.4731 38.5353L55.433 37.9473C55.6685 37.8023 55.8946 37.6223 56.1047 37.4072C57.671 35.8139 59.5764 34.4611 61.7651 33.3872C61.8765 33.333 61.9816 33.3314 62.0787 33.384C62.1774 33.4366 62.2506 33.5402 62.2634 33.639L62.3366 34.2173L62.69 33.7553C62.7329 33.6995 62.8253 33.6931 62.9431 33.7377C72.6403 37.208 83.1493 39.1392 92.1796 39.1392C92.9723 39.1392 93.7555 39.1248 94.5243 39.0945C100.191 38.8731 105.08 37.8406 109.051 36.0242C113.534 33.9751 116.841 30.9271 118.88 26.9645L119.033 26.6665L118.704 26.6171Z" fill="white"/>
<path d="M101.983 38.8125C101.983 38.8125 109.759 38.0891 112.29 49.491C114.821 60.8945 114.657 71.1253 114.657 71.1253L120.427 64.1513C120.427 64.1513 121.325 40.468 115.002 37.1825C107.228 33.7441 101.983 38.8125 101.983 38.8125Z" fill="#845F34"/>
<path d="M43.4881 68.4343L48.0995 64.6326C48.0995 64.6326 49.4493 51.0654 51.8211 45.8552C56.6697 35.2053 62.2537 34.0406 62.2537 34.0406C62.2537 34.0406 93.8302 43.7042 106.092 38.3012C119.082 32.5779 114.551 26.8945 114.551 26.8945C114.551 26.8945 106.413 26.3511 103.158 24.1794C99.9029 22.0077 104.244 18.7493 104.244 18.7493C104.244 18.7493 62.7456 13.5901 49.9969 26.622C37.2482 39.6539 43.4881 68.4343 43.4881 68.4343Z" fill="#845F34"/>
<g style="mix-blend-mode:multiply">
<path d="M47.3926 71.4744C47.3926 71.4744 52.2953 64.4079 65.1714 64.6772C71.5943 64.811 76.5288 65.6874 77.2037 67.5707C77.8803 69.4556 78.8258 76.522 78.2862 76.7913C77.745 77.0606 75.5817 77.5322 74.4324 70.2634C73.8721 66.7151 62.061 66.8314 57.058 70.5996C52.055 74.3678 49.5542 82.1752 48.9462 81.0981C47.9513 79.3391 53.0021 74.0986 52.8668 71.272C52.7331 68.447 47.6632 73.4947 47.3926 71.4744Z" fill="#DCC8B9"/>
</g>
<g style="mix-blend-mode:multiply">
<path d="M84.7998 81.1698C84.7998 81.1698 80.3698 69.2038 86.7895 66.0904C93.2092 62.9755 106.318 63.2224 109.121 64.3696C111.924 65.5168 114.816 67.0735 113.28 67.8112C111.743 68.549 108.217 67.5659 109.845 69.7774C111.472 71.9906 110.116 74.6132 110.116 74.6132C110.116 74.6132 106.047 68.2207 100.079 67.8925C90.777 67.381 87.3769 70.4737 86.6526 73.1792C85.93 75.8847 89.3205 81.6621 84.7998 81.1698Z" fill="#DCC8B9"/>
</g>
<g style="mix-blend-mode:multiply">
<path d="M76.5814 126.674C76.7661 126.334 80.5036 127.926 82.8356 127.791C85.1692 127.655 88.9561 125.861 89.327 126.403C89.6994 126.945 87.264 130.025 82.9709 130.058C78.6778 130.092 75.9734 127.791 76.5814 126.674Z" fill="#DCC8B9"/>
</g>
<g style="mix-blend-mode:multiply">
<path d="M75.9637 101.843C77.1592 100.266 79.9846 104.519 82.5172 104.338C85.0497 104.157 89.3969 100.757 89.7996 101.482C90.2024 102.207 87.5616 106.329 82.9008 106.375C78.24 106.419 74.9768 103.145 75.9637 101.843Z" fill="#DCC8B9"/>
</g>
<g style="mix-blend-mode:multiply">
<path d="M118.678 71.2736C118.716 72.3395 119.93 72.7092 120.577 71.895C121.223 71.0808 123.09 71.0218 124.29 71.8695C125.489 72.7171 126.193 74.124 126.274 76.6383C126.355 79.1526 125.917 80.687 125.772 81.3275C125.628 81.9664 125.702 82.4636 126.342 81.2638C126.984 80.064 127.608 77.7091 127.944 76.632C128.279 75.5549 127.907 72.6853 127.651 71.7643C127.394 70.8418 125.737 68.7402 125.515 68.4964C125.292 68.2542 124.206 67.722 123.854 67.6424C123.501 67.5627 120.96 68.1411 120.335 68.8645C119.708 69.5862 118.678 71.2736 118.678 71.2736Z" fill="#DCC8B9"/>
</g>
<g style="mix-blend-mode:multiply">
<path d="M43.8523 72.8828C43.8061 73.9137 42.5916 74.2818 41.9517 73.4979C41.3118 72.7155 39.4478 72.6725 38.2444 73.501C37.041 74.3296 36.3295 75.6967 36.2308 78.1313C36.1321 80.5659 36.5571 82.0461 36.6972 82.6643C36.8373 83.2825 36.7593 83.7637 36.1289 82.607C35.497 81.4502 34.8921 79.1765 34.5642 78.1361C34.2378 77.0972 34.6294 74.3168 34.8921 73.423C35.1547 72.5291 36.8245 70.4833 37.049 70.2443C37.2734 70.0085 38.3606 69.4842 38.714 69.4046C39.0674 69.3249 41.5999 69.8666 42.2191 70.5613C42.8367 71.2576 43.8523 72.8828 43.8523 72.8828Z" fill="#DCC8B9"/>
</g>
<path opacity="0.3" d="M49.1643 95.427C51.3546 97.4792 56.2032 96.5885 56.4117 99.8357C56.6203 103.085 51.9276 103.115 49.7214 107.89C47.5152 112.665 48.978 123.49 52.2476 125.973C59.3056 131.33 65.0424 132.697 64.8196 133.683C64.5967 134.669 58.9682 133.288 54.8741 131.42C50.78 129.553 44.5019 126.107 43.6917 121.779C42.8799 117.453 42.1874 110.516 42.4262 107.369C42.665 104.222 44.3013 99.5059 44.6261 95.5305C45.0208 90.6948 44.478 83.2746 44.478 83.2746C44.478 83.2746 44.3586 90.9274 49.1643 95.427Z" fill="white"/>
<path opacity="0.3" d="M120.714 102.986C122.984 109.147 121.747 118.918 119.897 122.112C118.048 125.307 112.826 130.453 111.413 131.714C109.999 132.975 99.7021 139.118 95.8786 140.061C92.0551 141.004 86.573 141.798 85.5097 138.509C84.4463 135.219 97.9352 132.698 102.593 131.302C116.082 127.257 118.342 114.542 115.63 105.989C114.749 103.215 112.113 91.5584 114.907 90.9656C121.139 89.6464 118.253 96.3065 120.714 102.986Z" fill="white"/>
<path d="M88.5949 102.063C97.8767 103.66 92.5601 95.2118 87.7035 100.113C84.8399 103.002 82.9424 105.722 79.4087 102.063C78.9677 101.606 77.715 100.451 77.2597 100.113C72.0132 96.2172 70.9307 99.8692 70.9307 99.8692C69.9391 104.407 77.2597 101.657 77.2597 101.657C77.2597 101.657 80.031 104.848 82.8565 104.848C85.6819 104.847 88.5949 102.063 88.5949 102.063Z" fill="#222221"/>
<path d="M124.859 77.5418C125.155 79.022 124.861 81.7626 123.928 83.1121C123.668 83.4993 123.348 83.1488 123.45 82.564C123.694 81.1061 124.019 80.0163 123.81 78.6285C122.783 79.2052 121.847 80.4257 121.239 82.4015C120.915 83.4435 120.168 82.8588 120.512 81.8518C121.227 79.7597 122.248 78.0596 123.403 77.5322C123.122 76.8806 122.82 76.5061 122.293 76.5014C121.922 76.5173 122.043 75.3191 122.416 75.206C123.46 74.9064 124.525 75.8624 124.859 77.5418Z" fill="#222221"/>
<path d="M42.9926 82.6882C43.1852 83.5374 42.3256 83.9661 42.1076 83.1726C41.4438 80.8272 40.5874 79.7612 39.8186 81.0088C39.7437 82.6165 40.0366 84.4696 40.5428 86.1266C40.7577 86.8197 39.8042 87.2754 39.5766 86.6349C38.7664 84.4042 38.612 81.5713 38.8364 79.3629C39.0322 77.4127 39.8042 75.1453 40.8675 75.2123C41.2623 75.2314 41.552 76.3451 41.2273 76.7307C40.6399 77.4382 40.129 77.9958 39.8424 79.2275C40.8453 78.5694 42.3925 80.0799 42.9926 82.6882Z" fill="#222221"/>
<path d="M78.2576 71.3564C77.7005 70.9023 76.6356 70.7048 75.9097 70.5008C74.9451 70.2284 73.9582 70.0101 72.9617 69.8348C71.0134 69.4922 69.0204 69.3058 67.0307 69.2357C61.1617 69.0302 54.9744 69.6787 49.3442 71.1095C48.9415 71.2115 48.6454 71.5174 48.6454 71.8727C48.6454 73.5776 48.6454 75.2824 48.6454 76.9873C48.6359 77.0351 48.6422 77.0877 48.6454 77.1387C48.6454 77.1434 48.6454 77.1482 48.6454 77.1514C48.6454 77.1594 48.6502 77.1657 48.6502 77.1737C48.6566 77.2359 48.6518 77.2948 48.6789 77.3617C48.6884 77.384 48.7027 77.4031 48.7123 77.4255C48.7282 77.4621 48.7441 77.4972 48.7664 77.529C49.8918 80.0322 52.9098 81.9011 55.7417 82.9002C59.355 84.1748 63.3616 84.4106 67.244 84.2226C70.1426 84.0824 73.366 83.7414 75.862 82.3999C76.9683 81.8055 78.0093 80.9547 78.3738 79.8696C78.4136 79.7501 78.5187 79.1208 78.4773 79.3645C78.4423 79.5765 78.5521 78.9726 78.5712 78.8642C78.6524 78.4022 78.7256 77.9385 78.7909 77.4748C78.958 76.2958 79.0917 75.1008 79.0519 73.9122C79.0249 73.1155 79.0026 71.9635 78.2576 71.3564ZM50.5604 77.0319C50.5795 77.0654 50.5747 77.059 50.5604 77.0319V77.0319ZM77.0908 75.5549C76.9953 76.8088 76.8377 78.0787 76.5767 79.3183C76.5767 79.2737 76.4477 79.7151 76.4271 79.7565C76.3077 79.9891 75.9431 80.4034 75.6343 80.652C74.0664 81.9155 71.6342 82.3664 69.5537 82.6293C65.7174 83.1169 61.5469 83.0977 57.7951 82.215C55.2498 81.6159 52.8494 80.5548 51.0777 78.8961C50.6129 78.4611 50.0717 77.0223 50.0717 77.0223C50.0717 75.4577 50.0717 73.893 50.0717 72.3284C53.9381 71.4042 57.534 70.8768 61.531 70.6633C65.2558 70.4658 69.0475 70.555 72.6991 71.2433C73.7879 71.4489 76.5226 71.7675 76.9906 72.6008C77.4299 73.3879 77.1545 74.7184 77.0908 75.5549Z" fill="#222221"/>
<path d="M83.9323 71.6018C84.4926 71.1477 85.5623 70.9501 86.2913 70.7462C87.2608 70.4737 88.2525 70.2554 89.2537 70.0802C91.2116 69.7376 93.2141 69.5512 95.2134 69.4811C101.111 69.2755 107.329 69.924 112.986 71.3548C113.39 71.4568 113.689 71.7627 113.689 72.118C113.689 73.8229 113.763 76.0026 113.763 77.7075C113.772 77.7553 113.766 77.8078 113.763 77.8588C113.763 77.8636 113.763 77.8684 113.763 77.8716C113.763 77.8795 113.758 77.8859 113.758 77.8939C113.75 77.956 113.756 78.015 113.729 78.0819C113.72 78.1042 113.705 78.1233 113.696 78.1456C113.68 78.1823 113.662 78.2173 113.642 78.2492C112.511 80.7523 109.404 82.1465 106.558 83.1439C102.927 84.4186 98.9 84.6544 95.0001 84.4664C92.0887 84.3262 88.8494 83.9852 86.3407 82.6436C85.2296 82.0493 84.1838 81.1985 83.8161 80.1134C83.7763 79.9939 83.6697 79.3645 83.7111 79.6083C83.7477 79.8202 83.6362 79.2163 83.6171 79.108C83.536 78.6459 83.4627 78.1823 83.3959 77.7186C83.2287 76.5395 83.0934 75.3445 83.1332 74.1559C83.1619 73.3608 83.1842 72.2089 83.9323 71.6018ZM111.766 77.2773C111.746 77.3107 111.751 77.3043 111.766 77.2773V77.2773ZM85.1055 75.8002C85.2026 77.0542 85.3602 78.3241 85.6228 79.5637C85.6228 79.5191 85.7517 79.9604 85.774 80.0019C85.8934 80.2345 86.2595 80.6488 86.5699 80.8973C88.1458 82.1608 90.5892 82.6118 92.6792 82.8747C96.5346 83.3622 100.726 83.3431 104.495 82.4604C107.053 81.8613 109.465 80.8001 111.246 79.1415C111.712 78.7065 112.121 78.2317 112.46 77.7202C112.559 77.572 112.644 77.4191 112.733 77.2677C112.733 75.703 112.733 74.1384 112.733 72.5737C108.847 71.6496 104.759 71.1222 100.742 70.9087C96.9978 70.7111 93.1886 70.8004 89.5195 71.4887C88.4244 71.6942 85.6769 72.0129 85.2073 72.8462C84.7648 73.6333 85.0418 74.9637 85.1055 75.8002Z" fill="#222221"/>
<path d="M87.3243 126.151C88.3431 126.068 88.5819 127.416 87.5615 127.63C84.666 128.213 80.677 128.348 77.9582 127.228C77.5157 127.042 77.5014 126.269 78.0792 126.248C79.4529 126.183 80.8202 126.424 82.2131 126.448C83.9306 126.5 85.6163 126.288 87.3243 126.151Z" fill="#222221"/>
<path d="M71.1501 89.9984C70.7888 89.5794 58.836 99.6572 62.5385 101.475C67.7962 92.5987 72.6751 90.9704 71.1501 89.9984Z" fill="#222221"/>
<path d="M94.3203 89.6766C94.5893 89.4057 105.918 101.219 102.033 101.862C97.4737 92.5494 92.7158 90.5274 94.3203 89.6766Z" fill="#222221"/>
<path d="M78.3799 73.9089C78.3799 73.9089 81.1608 70.3797 83.4657 73.4341C85.7706 76.4885 82.517 73.5696 81.4999 73.7735C80.4827 73.9759 77.4312 77.0303 78.3799 73.9089Z" fill="#222221"/>
<path d="M113.143 72.1897L119.246 65.2667L119.111 67.6646L113.369 73.1393L113.143 72.1897Z" fill="#222221"/>
<path d="M49.2233 71.5333L43.1203 67.8686L43.0535 69.6324L49.2233 72.8223V71.5333Z" fill="#222221"/>
<path d="M50.299 66.3947C50.299 66.3947 53.1801 63.2112 56.491 62.781C59.8036 62.3508 78.8144 63.0392 80.9028 65.9645C81.0461 68.8039 80.3266 69.6643 76.7976 67.6853C73.2686 65.7064 59.299 65.2762 57.3554 65.8785C55.4118 66.4808 48.4986 70.9549 50.299 66.3947Z" fill="#222221"/>
<path d="M81.9519 67.3779C81.9217 66.2036 84.4988 64.4652 86.245 63.8088C87.9912 63.1523 105.16 62.2075 107.051 62.7158C108.942 63.2256 113.89 65.2651 113.162 67.0847C112.435 68.9059 109.67 65.7017 106.615 65.3368C103.559 64.9719 89.1548 66.2099 87.6267 66.8664C86.0985 67.5229 82.0236 70.1455 81.9519 67.3779Z" fill="#222221"/>
<path opacity="0.3" d="M82.7751 79.1367C82.7751 79.1367 83.5997 89.248 83.8066 92.9621C84.0056 96.5599 84.749 96.9916 85.868 96.058C88.3417 93.9946 91.4345 95.2326 90.1977 93.1692C87.6429 88.9071 84.8381 84.0888 82.7751 79.1367Z" fill="white"/>
<path d="M111.014 103.816C110.894 104.584 109.56 104.6 109.554 103.806C109.554 103.252 109.521 102.769 109.334 102.305C106.289 112.152 97.3003 119.983 86.6957 121.989C76.521 123.908 60.7542 121.492 57.1424 111.332C56.9753 110.975 57.5659 110.67 57.7776 110.994C63.2788 119.227 76.0116 121.628 85.8378 119.961C96.2386 118.188 104.957 111.214 107.798 101.493C107.87 101.263 108.021 101.101 108.191 100.989C107.813 100.749 107.368 100.585 106.883 100.484C106.377 100.389 106.332 99.5808 106.92 99.5617C109.181 99.4948 111.348 101.652 111.014 103.816Z" fill="#222221"/>
<path d="M70.3828 78.0851C69.7334 77.5991 69.6092 76.957 70.2587 76.4694C70.4911 76.2957 70.7728 76.1874 71.0705 76.1396C71.5799 76.0599 71.8807 75.6313 71.7263 75.2585C70.8922 73.2429 68.2164 71.8328 65.1713 72.1355C62.4987 72.4016 60.3354 74.0571 60.0298 76.0631C59.6159 78.7829 62.4446 81.0901 65.9943 81.0901C68.3533 81.0901 70.4974 79.7835 71.4796 78.3017C71.0753 78.2906 70.6901 78.3161 70.3828 78.0851Z" fill="white"/>
<path d="M71.2806 77.4717L71.217 77.4621L70.7729 77.5019L70.6567 77.5274C70.3797 77.6262 70.2189 77.8158 70.2285 78.0341C70.2555 78.7798 69.8751 79.398 69.1253 79.825C68.0382 80.4448 66.2967 80.6089 64.576 80.2568C61.4226 79.6099 60.9944 78.2954 61.3255 76.3866C61.5659 75.0036 62.4398 73.286 65.227 72.9641C68.998 72.5243 70.2157 74.9303 70.5659 75.9851C70.6216 76.1524 70.7967 76.2751 71.0212 76.3117C71.2504 76.3531 71.4971 76.3165 71.6706 76.2113C71.8187 76.1189 71.8935 75.9867 71.876 75.848C71.7184 74.5351 70.8827 73.3513 69.5806 72.5976C68.339 71.8775 66.7695 71.5954 65.0456 71.7771C61.819 72.118 59.8181 73.9472 59.5555 76.7993C59.3071 79.5302 61.3399 81.1778 65.4356 81.5618C65.7842 81.5952 66.128 81.6111 66.4655 81.6111C68.0461 81.6111 69.4692 81.2542 70.4752 80.593C71.4637 79.9413 71.9699 79.0522 71.9365 78.0214C71.9237 77.7521 71.6674 77.537 71.2806 77.4717Z" fill="#222221"/>
<path d="M66.0564 79.4903C64.611 79.4171 63.3153 77.8922 63.7435 76.3324C63.8008 76.1507 63.8708 75.9691 63.9743 75.8113C64.0443 75.4608 64.1717 75.1214 64.4025 74.8426C64.9803 74.1288 65.8367 73.9471 66.623 74.1527C67.2709 74.3216 67.8726 74.7342 68.2546 75.3142C69.1922 76.7546 68.3581 78.8721 66.8093 79.3804L66.0564 79.4903ZM66.6915 76.7801C66.7026 76.5984 66.553 76.369 66.3795 76.224C66.1948 76.224 65.9975 76.2607 65.8239 76.3451C65.8351 76.5267 65.7937 76.8805 65.9322 76.9904C66.0595 77.0876 66.3301 77.1019 66.3986 77.2597C66.5259 77.137 66.6803 76.9856 66.6915 76.7801Z" fill="#222221"/>
<path d="M97.2605 72.5291C94.5163 72.3809 92.2018 73.7512 91.5269 75.7365C91.6367 75.7221 91.7497 75.7157 91.8659 75.7221C92.7016 75.7667 93.3749 76.3419 93.3686 77.0064C93.3622 77.6708 92.6793 78.1743 91.842 78.1281C91.7258 78.1217 92.0681 79.0187 91.9582 78.9932C92.5934 81.0471 94.4223 81.7497 97.1666 81.8963C100.42 82.0716 103.08 80.1165 103.106 77.529C103.133 74.943 100.516 72.7043 97.2605 72.5291Z" fill="white"/>
<path d="M103.942 77.3522C103.861 74.865 101.185 72.6104 97.6685 72.1388C95.7726 71.8775 93.9452 72.2344 92.7816 73.0948C91.9125 73.7369 91.4987 74.6132 91.6165 75.566C91.6403 75.7349 91.7772 75.8815 91.981 75.9564C92.1895 76.0345 92.4426 76.0313 92.6193 75.95C92.7689 75.8815 92.8596 75.762 92.8676 75.6266C93.0204 73.5951 95.1868 73.3131 96.1117 73.286C98.5153 73.2175 101.511 74.473 102.137 76.4535C102.552 77.7601 102.049 78.9853 100.72 79.9015C100.039 80.3747 99.1011 80.738 98.0807 80.9228C96.6863 81.1698 94.6791 80.985 93.7351 80.2457C93.2719 79.8824 93.1112 79.4107 93.2528 78.8419C93.2942 78.6794 93.2465 78.5153 93.1191 78.3815C92.9711 78.2253 92.718 78.1249 92.4458 78.1026C92.0399 78.0787 91.7231 78.2444 91.6371 78.5312C91.3936 79.39 91.6706 80.1995 92.4362 80.8702C93.1525 81.498 94.2397 81.9473 95.4447 82.1545C96.2024 82.2851 97.0063 82.3202 97.7926 82.2421C101.382 81.8916 104.024 79.7884 103.942 77.3522Z" fill="#222221"/>
<path d="M97.3003 75.0769C97.0345 75.1119 96.7925 75.2171 96.5729 75.3398C96.5474 75.0195 96.3198 74.7327 96.0444 74.6881C95.9011 74.6642 95.734 74.7024 95.5732 74.8347C94.2998 75.891 94.1804 78.1233 95.3408 79.2068C95.6958 79.5414 96.1383 79.7453 96.6031 79.8202C97.6425 79.9891 98.7695 79.5143 99.2471 78.3687C99.8774 76.8789 98.9669 74.8745 97.3003 75.0769ZM96.7257 77.4971C96.4598 77.4541 96.2895 77.1689 96.3468 76.8646C96.4057 76.5602 96.67 76.3467 96.9374 76.3898C97.2032 76.4328 97.3735 76.718 97.3162 77.0223C97.2573 77.3282 96.9915 77.5417 96.7257 77.4971Z" fill="#222221"/>
<g style="mix-blend-mode:multiply">
<path d="M49.5242 131.137C49.5242 131.137 28.0827 152.682 80.5769 161.431C127.624 164.501 124.386 130.012 112.079 130.597C109.993 138.328 98.4067 152.491 81.6594 152.508C64.9121 152.526 55.0764 139.762 49.5242 131.137Z" fill="#CCCCCC"/>
</g>
<path d="M117.976 126.346C118.018 126.295 118.061 126.242 118.103 126.191C126.597 115.611 119.516 104.391 119.47 91.7735C119.461 91.7082 119.462 91.6429 119.465 91.5759C119.461 90.6008 117.913 90.6008 117.92 91.5759C118.012 102.989 123.61 112.732 118.117 122.235C111.849 133.079 93.8661 141.529 82.0423 141.036C71.4075 140.598 52.3377 132.792 45.7429 123.909C39.1354 115.004 47.1899 104.304 44.6796 93.7779C44.4186 93.3175 43.9617 93.711 43.3075 94.0185C41.0965 95.059 40.3786 94.4774 38.4812 92.7693C36.7684 91.2254 33.7965 79.8203 35.7496 75.6681C37.4481 72.0576 39.086 68.4614 42.5466 71.8791C42.6771 72.0098 43.9474 72.6567 43.9394 72.1643C43.9171 71.2051 43.7245 67.7827 43.7134 67.6791C41.8972 52.8658 37.2029 26.0691 57.4013 19.8933C65.9269 17.2946 75.6305 18.5709 84.7722 18.6824C88.6403 18.727 92.4765 18.5916 96.2729 18.1964C97.9045 18.0212 102.306 16.6429 103.793 17.0875C106.768 17.975 106.142 21.4086 105.773 23.609C105.711 23.9452 105.875 24.3913 106.357 24.5045C110.44 25.4668 114.523 26.2428 118.668 26.8546C110.142 43.4237 81.3339 40.0682 63.0219 33.5132C62.7752 33.4176 62.5905 33.4893 62.4982 33.6104C62.4568 33.2837 62.078 32.9667 61.6577 33.1722C47.6547 40.0363 49.9118 55.3865 46.967 67.4242C46.967 67.4242 46.9861 67.8623 47.5051 68.1635C47.9348 68.412 48.4028 67.797 48.4028 67.797C49.1112 64.8987 50.4037 54.9451 50.3321 55.1459C51.4814 46.7331 53.4504 38.5354 62.2531 34.0438C62.3247 34.0071 62.3756 33.9593 62.417 33.9115C62.4377 34.0661 62.5396 34.219 62.7561 34.3035C74.8203 39.391 93.4523 43.1369 105.034 39.544C109.805 43.035 110.8 47.9504 111.713 52.7591C111.96 54.029 112.154 55.2941 112.339 56.5592L114.647 68.9761C114.626 62.7047 113.991 56.403 112.575 50.1269C111.661 46.1101 110.338 41.679 105.876 39.2667C108.708 38.3059 111.314 36.9962 113.611 35.2898C122.627 44.8944 119.677 57.5455 118.703 64.2709C118.633 64.357 117.905 68.318 117.816 69.7249C117.778 70.2842 118.945 70.6889 119.182 70.6124C121.329 69.8683 122.423 68.608 124.755 68.7403C127.553 68.8932 127.174 78.1887 127.254 80.8384C127.416 86.0072 124.846 93.2665 120.656 91.1744C120.129 90.9115 119.65 91.3274 119.637 91.7767C119.631 91.9743 119.725 92.1814 119.943 92.336C124.742 95.6549 128.593 86.7975 128.734 81.146C128.798 78.5616 128.628 68.0137 126.246 66.8745C123.426 65.5281 122.101 66.8968 119.539 68.5506C119.553 68.3499 119.574 68.1364 119.598 67.9181C122.698 57.9231 123.782 43.4205 114.44 34.6397C117.036 32.5301 119.18 29.866 120.697 26.5949C120.903 26.1424 120.379 25.7027 119.876 25.6389C117.106 25.2517 109.167 24.9506 107.607 22.7231C107.463 22.516 107.576 20.118 107.524 19.7993C107.318 18.4562 106.827 17.1942 106.222 15.9068C106.067 15.5627 105.657 15.252 105.197 15.3444C94.2816 17.5496 83.4892 17.0413 72.1636 16.9027C64.6853 16.8071 56.9699 17.3902 51.0006 20.9816C36.2558 29.8629 40.1 53.261 42.1869 67.2473C42.163 67.8575 42.1916 68.667 42.3046 69.7759C38.5321 65.5918 34.4523 71.6991 33.4893 76.2911C31.0013 88.1598 38.1373 98.4496 43.2836 95.5258C43.9569 101.856 38.0307 119.188 45.1524 126.269C45.6777 126.792 46.3462 127.383 47.1326 128.02C42.7169 129.47 15.7201 138.544 0.0153809 148.633V151.613C5.00726 148.673 23.2652 138.42 48.2007 130.249C51.8411 144.315 66.3376 154.341 80.624 154.341C109.244 154.341 114.803 133.857 115.72 128.997C138.401 136.285 155.763 145.404 162.99 149.484V146.377C147.244 136.844 122.743 128.022 117.976 126.346ZM80.7832 148.127C63.1222 148.127 56.6499 135.52 55.94 134.014C63.8687 138.715 74.1231 143.276 81.7303 143.276C91.4896 143.276 101.789 138.694 109.178 133.791C105.712 141.508 99.2448 148.127 80.7832 148.127Z" fill="#222221"/>
<circle cx="81.5" cy="81.5" r="77" stroke="white" stroke-width="9"/>
</g>
<defs>
<radialGradient id="paint0_radial_29_741" cx="0" cy="0" r="1" gradientUnits="userSpaceOnUse" gradientTransform="translate(81.5 81.5) rotate(-44.9374) scale(105.462 87.9229)">
<stop stop-color="#E6E4E4"/>
<stop offset="0.802083" stop-color="#939393"/>
</radialGradient>
</defs>
</svg>
