<svg width="522" height="127" viewBox="0 0 522 127" fill="none" xmlns="http://www.w3.org/2000/svg">
<path d="M13.9057 63.655C18.2257 65.1334 20.2515 67.9634 20.2515 74.7007V107.972C20.2515 114.843 23.4915 118.75 30.5149 118.75H34.1572V126.698H29.1597C17.0045 126.698 10.6587 120.77 10.6587 108.781V74.574C10.6587 69.7234 8.49872 67.7029 4.58112 67.7029H0V59.614H4.58818C8.50578 59.614 10.6658 57.5935 10.6658 52.743V18.5358C10.6658 6.54668 17.0186 0.619019 29.1667 0.619019H34.1643V8.56715H30.522C23.4985 8.56715 20.2586 12.4743 20.2586 19.3454V52.6163C20.2586 59.3465 18.2327 62.1695 13.9057 63.655Z" fill="white"/>
<path d="M508.087 63.655C503.767 62.1766 501.741 59.3465 501.741 52.6092V19.3454C501.741 12.4743 498.501 8.56715 491.478 8.56715H487.835V0.619019H492.833C504.988 0.619019 511.334 6.54668 511.334 18.5358V52.743C511.334 57.5936 513.494 59.614 517.412 59.614H522V67.6959H517.412C513.494 67.6959 511.334 69.7164 511.334 74.5669V108.774C511.334 120.763 504.988 126.691 492.833 126.691H487.835V118.743H491.478C498.501 118.743 501.741 114.836 501.741 107.965V74.6937C501.734 67.9634 503.76 65.1334 508.087 63.655Z" fill="white"/>
<path d="M55.9996 48.1086C53.8564 48.1086 52.2889 47.0949 51.2831 45.7855C50.7144 44.9126 50 43.6103 50 41.583C50 39.5556 50.7144 38.2463 51.2831 37.3804C52.2819 36.0781 53.8564 35.0574 55.9996 35.0574H74.7128C78.8535 35.0574 81.8568 37.9576 81.8568 41.7237V95.9488H95.0004C97.1436 95.9488 98.7112 96.9625 99.7169 98.2718C100.286 99.1447 101 100.447 101 102.474C101 104.502 100.286 105.811 99.7169 106.677C98.7181 107.979 97.1436 109 95.0004 109H55.9996C53.8564 109 52.2889 107.986 51.2831 106.677C50.7144 105.804 50 104.502 50 102.474C50 100.447 50.7144 99.1377 51.2831 98.2718C52.2819 96.9695 53.8564 95.9488 55.9996 95.9488H68.9976V48.1086H55.9996ZM76.1416 2C78.9992 2 81.9955 5.04809 81.9955 8.66638V14.1783C81.9955 18.0922 78.7079 20.7039 74.8515 20.7039H69.8507C65.5643 20.7039 62.5679 17.9514 62.5679 14.1783V8.66638C62.5679 4.90026 65.7099 2 69.8507 2H76.1416Z" fill="#FF931E"/>
<path d="M131.314 7L147.493 30.022L163.672 7H180V102.88C180 105.066 178.981 106.665 177.664 107.691C176.787 108.271 175.477 109 173.439 109C171.401 109 170.084 108.271 169.214 107.691C167.904 106.672 166.878 105.066 166.878 102.88V25.9397L154.054 43.4291V47.5113C154.054 49.6975 153.035 51.2965 151.725 52.3223C150.848 52.9025 149.538 53.6312 147.5 53.6312C145.462 53.6312 144.145 52.9025 143.275 52.3223C141.965 51.3035 140.946 49.6975 140.946 47.5113V43.4291L128.115 25.9397V102.88C128.115 105.066 127.096 106.665 125.786 107.691C124.909 108.271 123.599 109 121.561 109C119.523 109 118.206 108.271 117.336 107.691C116.026 106.672 115 105.066 115 102.88V7H131.314Z" fill="white"/>
<path d="M199.117 48.1086C196.932 48.1086 195.334 47.0949 194.308 45.7855C193.728 44.9126 193 43.6103 193 41.583C193 39.5556 193.728 38.2463 194.308 37.3804C195.327 36.0781 196.932 35.0574 199.117 35.0574H218.197C222.419 35.0574 225.481 37.9576 225.481 41.7237V95.9488H238.883C241.068 95.9488 242.666 96.9625 243.692 98.2718C244.272 99.1447 245 100.447 245 102.474C245 104.502 244.272 105.811 243.692 106.677C242.673 107.979 241.068 109 238.883 109H199.117C196.932 109 195.334 107.986 194.308 106.677C193.728 105.804 193 104.502 193 102.474C193 100.447 193.728 99.1377 194.308 98.2718C195.327 96.9695 196.932 95.9488 199.117 95.9488H212.37V48.1086H199.117ZM219.654 2C222.568 2 225.623 5.04809 225.623 8.66638V14.1783C225.623 18.0922 222.271 20.7039 218.339 20.7039H213.24C208.869 20.7039 205.814 17.9514 205.814 14.1783V8.66638C205.814 4.90026 209.018 2 213.24 2H219.654Z" fill="white"/>
<path d="M271.089 49.0744L282.138 39.6422C284.46 37.6134 288.393 35 294.641 35H303.367C314.126 35 323 43.9955 323 54.4422V57.4923C323 61.6978 320.24 64.7479 316.314 64.7479C312.1 64.7479 309.918 61.2681 309.918 57.4923V54.4422C309.918 50.9623 306.861 48.0601 303.374 48.0601H294.648C294.069 48.0601 292.177 48.0601 289.995 49.9479L271.089 66.4879V102.907C271.089 105.083 270.072 106.675 268.759 107.697C267.884 108.274 266.578 109 264.544 109C262.511 109 261.198 108.274 260.33 107.697C259.024 106.682 258 105.083 258 102.907V41.0933C258 38.9166 259.017 37.3246 260.33 36.3032C261.205 35.7256 262.511 35 264.544 35C266.578 35 267.891 35.7256 268.759 36.3032C270.065 37.3176 271.089 38.9166 271.089 41.0933V49.0744Z" fill="white"/>
<path d="M370.759 35C376.705 35 380.622 37.6137 383.235 39.6426L388.892 44.1373C391.506 46.1662 393.098 48.6319 394.26 51.3936C395.274 53.8593 396 56.325 396 59.2275V84.9134C396 87.6679 395.126 90.8593 393.971 93.3321C392.809 95.6569 390.921 97.9747 388.892 99.7148L383.235 104.505C379.896 107.26 374.965 109 370.759 109H356.107C352.19 109 347.4 107.549 343.772 104.505L338.115 99.7148C336.375 98.2635 334.05 95.509 332.888 93.1841C331.874 91.1552 331 87.527 331 84.9134V59.2346C331 55.3176 332.451 51.9783 332.888 50.9638C333.902 48.639 335.79 46.0324 338.115 44.1443L343.772 39.6497C346.674 37.3248 350.154 35.007 356.107 35.007H370.759V35ZM356.107 48.0613C354.656 48.0613 352.768 49.0758 352.042 49.6605L346.385 54.3031C345.371 55.1767 344.061 57.3536 344.061 59.2346V85.0613C344.061 87.675 345.512 89.1262 346.385 89.8519L352.042 94.6424C352.768 95.368 354.508 95.9457 356.107 95.9457H370.907C371.922 95.9457 373.662 95.6569 374.972 94.6424L380.629 89.8519C381.502 89.1262 382.953 87.675 382.953 85.0613V59.2346C382.953 57.7833 381.65 55.1697 380.629 54.3031L374.972 49.6605C374.246 49.0828 372.359 48.0613 370.907 48.0613H356.107Z" fill="white"/>
<path d="M419.089 102.9C419.089 105.076 418.072 106.668 416.759 107.69C415.884 108.267 414.578 108.993 412.544 108.993C410.511 108.993 409.198 108.267 408.33 107.69C407.024 106.675 406 105.076 406 102.9V41.0933C406 38.9166 407.017 37.3246 408.33 36.3032C409.205 35.7256 410.511 35 412.544 35C414.578 35 415.891 35.7256 416.759 36.3032C418.065 37.3176 419.089 38.9166 419.089 41.0933V46.461L427.525 40.8045C431.451 38.1911 435.814 35 443.085 35H449.044C453.986 35 459.365 35.8735 464.018 41.2412C468.96 47.0457 469.108 53.139 469.397 59.669L471 101.892V102.907C471 105.083 469.983 106.675 468.677 107.697C467.802 108.274 466.496 109 464.463 109C462.429 109 461.116 108.274 460.248 107.697C458.215 106.098 457.925 103.928 457.925 102.907L456.323 58.9435C456.174 56.9147 455.885 52.8502 453.562 50.3847C452.256 49.0815 450.216 48.0601 447.893 48.0601H443.678C442.224 48.0601 440.043 48.7856 438.878 49.2224C438.299 49.5112 436.548 50.2367 434.515 51.547L419.103 61.7048V102.9H419.089Z" fill="white"/>
</svg>
